<?xml version="1.0" encoding="UTF-8" standalone="no"?>
<!DOCTYPE svg PUBLIC "-//W3C//DTD SVG 1.1//EN" "http://www.w3.org/Graphics/SVG/1.1/DTD/svg11.dtd">
<svg width="100%" height="100%" viewBox="0 0 387 386" version="1.1" xmlns="http://www.w3.org/2000/svg" xmlns:xlink="http://www.w3.org/1999/xlink" xml:space="preserve" xmlns:serif="http://www.serif.com/" style="fill-rule:evenodd;clip-rule:evenodd;stroke-linejoin:round;stroke-miterlimit:2;">
    <g transform="matrix(1,0,0,1,-158,-1170)">
        <g>
            <g transform="matrix(6.02638,0,0,-6.02638,158.642,1555.93)">
                <path d="M9.955,64L54.045,64C56.685,64 59.217,62.951 61.084,61.084C62.951,59.217 64,56.685 64,54.045L64,9.955C64,7.315 62.951,4.783 61.084,2.916C59.217,1.049 56.685,0 54.045,0L9.955,0C7.315,0 4.783,1.049 2.916,2.916C1.049,4.783 0,7.315 0,9.955L0,54.045C0,56.685 1.049,59.217 2.916,61.084C4.783,62.951 7.315,64 9.955,64" style="fill:#009CCC;fill-rule:nonzero;" />
            </g>
            <g transform="matrix(0.463116,0,0,-0.463116,229.735,1323.76)">
                <path d="M85.32,0.003C88.07,-0.005 90.669,0.618 93.116,1.871C95.564,3.124 97.589,4.868 99.19,7.103L179.87,119.303L243.54,51.303C246.818,47.784 250.861,45.981 255.67,45.893C257.98,45.795 260.21,46.173 262.358,47.027C264.507,47.881 266.388,49.136 268,50.793L410,190.963L410,146.133C409.972,144.996 410.058,143.866 410.256,142.745C410.455,141.625 410.762,140.535 411.179,139.475C411.595,138.416 412.112,137.408 412.73,136.453C413.348,135.497 414.054,134.612 414.85,133.797C415.645,132.983 416.512,132.255 417.453,131.614C418.394,130.973 419.388,130.432 420.437,129.99C421.486,129.548 422.569,129.214 423.684,128.989C424.8,128.763 425.927,128.65 427.065,128.65C428.203,128.65 429.33,128.763 430.446,128.989C431.561,129.214 432.644,129.548 433.693,129.99C434.742,130.432 435.736,130.973 436.677,131.614C437.618,132.255 438.485,132.983 439.281,133.797C440.076,134.612 440.782,135.497 441.4,136.453C442.018,137.408 442.535,138.416 442.952,139.475C443.368,140.535 443.675,141.625 443.874,142.745C444.072,143.866 444.158,144.996 444.13,146.133L444.13,231.463C444.131,232.587 444.021,233.7 443.802,234.802C443.583,235.904 443.258,236.974 442.828,238.011C442.397,239.049 441.869,240.035 441.244,240.968C440.619,241.902 439.908,242.765 439.112,243.558C438.316,244.351 437.45,245.059 436.515,245.681C435.579,246.303 434.592,246.827 433.552,247.254C432.513,247.681 431.442,248.002 430.339,248.217C429.237,248.433 428.124,248.538 427,248.533L341.67,248.533C339.443,248.48 337.308,248.008 335.265,247.118C333.223,246.228 331.424,244.986 329.868,243.392C328.311,241.798 327.113,239.969 326.273,237.905C325.433,235.842 325.013,233.696 325.013,231.468C325.013,229.241 325.433,227.095 326.273,225.032C327.113,222.968 328.311,221.139 329.868,219.545C331.424,217.951 333.223,216.709 335.266,215.819C337.308,214.929 339.443,214.457 341.67,214.403L385.1,214.403L256.48,87.403L190.59,157.803C189.729,158.724 188.778,159.539 187.736,160.249C186.694,160.959 185.588,161.546 184.416,162.011C183.244,162.475 182.035,162.806 180.79,163.003C179.545,163.199 178.294,163.257 177.036,163.176C175.778,163.095 174.544,162.878 173.334,162.524C172.124,162.169 170.968,161.687 169.865,161.076C168.762,160.466 167.74,159.742 166.798,158.904C165.855,158.067 165.016,157.137 164.28,156.113L71.48,27.033C69.618,24.436 68.569,21.544 68.332,18.357C68.095,15.171 68.706,12.155 70.163,9.311C71.621,6.468 73.713,4.212 76.438,2.543C79.164,0.875 82.124,0.038 85.32,0.033L85.32,0.003Z" style="fill:white;fill-rule:nonzero;" />
            </g>
            <g transform="matrix(0.463116,0,0,-0.463116,229.735,1651.28)">
                <path d="M0,512L0,494.93C0.004,491.569 0.335,488.241 0.994,484.946C1.652,481.65 2.625,478.45 3.913,475.346C5.201,472.242 6.779,469.293 8.647,466.499C10.515,463.705 12.637,461.12 15.014,458.744C17.39,456.367 19.975,454.245 22.769,452.377C25.563,450.509 28.512,448.931 31.616,447.643C34.72,446.356 37.92,445.382 41.216,444.724C44.511,444.065 47.839,443.734 51.2,443.73L460.8,443.73C464.161,443.734 467.489,444.065 470.784,444.724C474.08,445.382 477.28,446.355 480.384,447.643C483.488,448.931 486.437,450.509 489.231,452.377C492.025,454.245 494.61,456.367 496.986,458.744C499.363,461.12 501.485,463.705 503.353,466.499C505.221,469.293 506.799,472.242 508.087,475.346C509.375,478.45 510.348,481.65 511.006,484.946C511.665,488.241 511.996,491.569 512,494.93L512,512L0,512Z" style="fill:white;fill-rule:nonzero;" />
            </g>
            <g transform="matrix(0.463116,0,0,-0.463116,229.735,1540.63)">
                <path d="M153.6,375.47C153.597,377.71 153.377,379.929 152.938,382.126C152.499,384.322 151.85,386.456 150.991,388.525C150.133,390.594 149.081,392.56 147.836,394.422C146.591,396.285 145.176,398.008 143.592,399.592C142.008,401.176 140.285,402.591 138.422,403.836C136.56,405.081 134.594,406.133 132.525,406.991C130.456,407.85 128.323,408.499 126.126,408.938C123.929,409.377 121.71,409.597 119.47,409.6L68.27,409.6C66.029,409.597 63.811,409.377 61.614,408.938C59.417,408.499 57.283,407.85 55.214,406.992C53.144,406.133 51.178,405.081 49.315,403.836C47.453,402.591 45.729,401.176 44.145,399.592C42.56,398.008 41.145,396.285 39.899,394.423C38.654,392.561 37.601,390.595 36.742,388.526C35.883,386.456 35.234,384.323 34.794,382.126C34.355,379.929 34.133,377.711 34.13,375.47L34.13,307.2L153.6,307.2L153.6,375.47Z" style="fill:white;fill-rule:nonzero;" />
            </g>
            <g transform="matrix(0.463116,0,0,-0.463116,229.735,1509.01)">
                <path d="M230.4,409.6C228.159,409.597 225.94,409.376 223.743,408.937C221.546,408.498 219.412,407.849 217.343,406.99C215.273,406.132 213.307,405.079 211.445,403.834C209.582,402.588 207.859,401.173 206.275,399.588C204.69,398.004 203.276,396.28 202.031,394.417C200.786,392.554 199.734,390.588 198.876,388.518C198.018,386.448 197.369,384.314 196.931,382.117C196.492,379.92 196.272,377.701 196.27,375.46L196.27,238.93L315.73,238.93L315.73,375.46C315.728,377.701 315.508,379.92 315.069,382.117C314.631,384.314 313.982,386.448 313.124,388.518C312.266,390.588 311.214,392.554 309.969,394.417C308.724,396.28 307.31,398.004 305.725,399.588C304.141,401.173 302.418,402.588 300.555,403.834C298.693,405.079 296.727,406.132 294.657,406.99C292.588,407.849 290.454,408.498 288.257,408.937C286.06,409.376 283.841,409.597 281.6,409.6L230.4,409.6Z" style="fill:white;fill-rule:nonzero;" />
            </g>
            <g transform="matrix(0.463116,0,0,-0.463116,229.735,1477.4)">
                <path d="M392.53,409.6C390.29,409.597 388.071,409.377 385.874,408.938C383.677,408.499 381.544,407.85 379.475,406.991C377.406,406.133 375.44,405.081 373.578,403.836C371.715,402.591 369.992,401.176 368.408,399.592C366.824,398.008 365.409,396.285 364.164,394.422C362.919,392.56 361.867,390.594 361.009,388.525C360.15,386.456 359.501,384.323 359.062,382.126C358.623,379.929 358.403,377.71 358.4,375.47L358.4,170.67L477.87,170.67L477.87,375.47C477.867,377.711 477.646,379.93 477.207,382.127C476.768,384.324 476.119,386.458 475.26,388.527C474.402,390.597 473.349,392.563 472.104,394.425C470.858,396.288 469.443,398.011 467.858,399.595C466.274,401.18 464.55,402.594 462.687,403.839C460.824,405.084 458.858,406.136 456.788,406.994C454.718,407.852 452.584,408.501 450.387,408.939C448.19,409.378 445.971,409.598 443.73,409.6L392.53,409.6Z" style="fill:white;fill-rule:nonzero;" />
            </g>
            <g transform="matrix(2,0,0,2,0,0)">
                <text x="93.709px" y="758.646px" style="font-family:'LucidaGrande-Bold', 'Lucida Grande', sans-serif;font-weight:600;font-size:12.006px;fill:white;">
                    B
                    <tspan x="102.047px 111.662px 119.297px 124.053px 134.055px 142.041px 149.675px 157.31px 162.082px 166.837px 176.84px 185.899px 193.885px 201.642px 209.399px 214.155px 223.882px 231.868px 241.871px 251.199px " y="758.646px 758.646px 758.646px 758.646px 758.646px 758.646px 758.646px 758.646px 758.646px 758.646px 758.646px 758.646px 758.646px 758.646px 758.646px 758.646px 758.646px 758.646px 758.646px 758.646px ">USINESS INTELLIGENCE</tspan>
                </text>
            </g>
        </g>
    </g>
</svg>