<?xml version="1.0" encoding="UTF-8" standalone="no"?>
<!DOCTYPE svg PUBLIC "-//W3C//DTD SVG 1.1//EN" "http://www.w3.org/Graphics/SVG/1.1/DTD/svg11.dtd">
<svg width="100%" height="100%" viewBox="0 0 387 386" version="1.1" xmlns="http://www.w3.org/2000/svg" xmlns:xlink="http://www.w3.org/1999/xlink" xml:space="preserve" xmlns:serif="http://www.serif.com/" style="fill-rule:evenodd;clip-rule:evenodd;stroke-linejoin:round;stroke-miterlimit:2;">
    <g transform="matrix(1,0,0,1,-1505,-1170)">
        <g>
            <g transform="matrix(6.02638,0,0,-6.02638,1505.45,1555.93)">
                <path d="M9.955,64L54.045,64C56.685,64 59.217,62.951 61.084,61.084C62.951,59.217 64,56.685 64,54.045L64,9.955C64,7.315 62.951,4.783 61.084,2.916C59.217,1.049 56.685,0 54.045,0L9.955,0C7.315,0 4.783,1.049 2.916,2.916C1.049,4.783 0,7.315 0,9.955L0,54.045C0,56.685 1.049,59.217 2.916,61.084C4.783,62.951 7.315,64 9.955,64" style="fill:#009CCC;fill-rule:nonzero;" />
            </g>
            <g>
                <g transform="matrix(4.26124,0,0,-4.26762,1276.77,1634.29)">
                    <path d="M86.075,98.263C78.38,98.263 72.146,92.021 72.146,84.326C72.146,76.63 78.38,70.397 86.075,70.397C89.432,70.397 92.516,71.586 94.922,73.564L100.041,71.686L97.633,76.54C99.135,78.764 100.012,81.44 100.012,84.326C100.012,92.021 93.77,98.263 86.075,98.263L86.075,98.263ZM105.78,69.793C101.661,69.793 98.318,66.681 98.318,62.846C98.318,59.012 101.661,55.907 105.78,55.907C109.899,55.907 113.235,59.011 113.235,62.846C113.235,66.681 109.899,69.793 105.78,69.793ZM72.006,63.966C69.428,63.966 67.336,62.02 67.336,59.62C67.336,57.22 69.428,55.281 72.006,55.281C74.584,55.281 76.676,57.22 76.676,59.62C76.676,62.02 74.584,63.966 72.006,63.966ZM87.018,63.966C84.44,63.966 82.348,62.02 82.348,59.62C82.348,57.22 84.44,55.281 87.018,55.281C89.596,55.281 91.681,57.22 91.681,59.62C91.681,62.02 89.596,63.966 87.018,63.966L87.018,63.966ZM124.541,63.966C121.963,63.966 119.871,62.02 119.871,59.62C119.871,57.22 121.963,55.281 124.541,55.281C127.119,55.281 129.204,57.22 129.204,59.62C129.204,62.02 127.119,63.966 124.541,63.966ZM100.896,54.957C98.047,54.957 95.747,52.665 95.747,49.815L95.747,45.189L115.805,45.189L115.805,49.815C115.805,52.665 113.513,54.957 110.663,54.957L100.896,54.957L100.896,54.957ZM68.949,54.036C67.166,54.036 65.73,52.601 65.73,50.817L65.73,47.922L78.282,47.922L78.282,50.817C78.282,52.601 76.846,54.036 75.063,54.036L68.949,54.036ZM83.961,54.036C82.178,54.036 80.742,52.601 80.742,50.817L80.742,47.922L93.294,47.922L93.294,50.817C93.294,52.601 91.858,54.036 90.075,54.036L83.961,54.036ZM121.484,54.036C119.701,54.036 118.265,52.601 118.265,50.817L118.265,47.922L130.817,47.922L130.817,50.817C130.817,52.601 129.381,54.036 127.598,54.036L121.484,54.036Z" style="fill:white;fill-rule:nonzero;" />
                </g>
                <g transform="matrix(2,0,0,2,0,0)">
                    <text x="802.566px" y="758.646px" style="font-family:'LucidaGrande-Bold', 'Lucida Grande', sans-serif;font-weight:600;font-size:12.006px;fill:white;">
                        C
                        <tspan x="811.588px 821.941px 831.637px 838.965px 848.274px 855.725px 864.477px 874.83px 883.582px 888.031px " y="758.646px 758.646px 758.646px 758.646px 758.646px 758.646px 758.646px 758.646px 758.646px 758.646px ">ONSULTORIA</tspan>
                    </text>
                </g>
            </g>
        </g>
    </g>
</svg>