<?xml version="1.0" encoding="UTF-8" standalone="no"?>
<!DOCTYPE svg PUBLIC "-//W3C//DTD SVG 1.1//EN" "http://www.w3.org/Graphics/SVG/1.1/DTD/svg11.dtd">
<svg width="100%" height="100%" viewBox="0 0 387 386" version="1.1" xmlns="http://www.w3.org/2000/svg" xmlns:xlink="http://www.w3.org/1999/xlink" xml:space="preserve" xmlns:serif="http://www.serif.com/" style="fill-rule:evenodd;clip-rule:evenodd;stroke-linejoin:round;stroke-miterlimit:2;">
    <g transform="matrix(1,0,0,1,-1055,-1170)">
        <g>
            <g transform="matrix(6.02638,0,0,-6.02638,1055.78,1555.93)">
                <path d="M9.955,64L54.045,64C56.685,64 59.217,62.951 61.084,61.084C62.951,59.217 64,56.685 64,54.045L64,9.955C64,7.315 62.951,4.783 61.084,2.916C59.217,1.049 56.685,0 54.045,0L9.955,0C7.315,0 4.783,1.049 2.916,2.916C1.049,4.783 0,7.315 0,9.955L0,54.045C0,56.685 1.049,59.217 2.916,61.084C4.783,62.951 7.315,64 9.955,64" style="fill:#009CCC;fill-rule:nonzero;" />
            </g>
            <g transform="matrix(0.1139,0,0,-0.113384,1182.09,1459.18)">
                <path d="M1096.4,2207.81C1098.72,2207.8 1101.05,2207.71 1103.36,2207.54C1107.71,2207.23 1112.04,2206.62 1116.31,2205.74C1121.79,2204.6 1127.17,2202.99 1132.38,2200.94C1137.96,2198.73 1143.35,2196.02 1148.44,2192.84C1153.65,2189.59 1158.56,2185.85 1163.08,2181.69C1168.17,2177 1172.78,2171.78 1176.79,2166.14C1180.55,2160.86 1183.78,2155.21 1186.43,2149.3C1189.09,2143.38 1191.15,2137.19 1192.6,2130.87C1193.61,2126.42 1194.31,2121.9 1194.7,2117.36C1194.92,2114.73 1195.04,2112.1 1195.06,2109.46C1198.17,1439.38 1198.17,769.259 1195.06,99.159C1195.04,96.523 1194.92,93.888 1194.7,91.261C1194.31,86.717 1193.61,82.198 1192.6,77.751C1191.29,72.013 1189.47,66.392 1187.16,60.979C1184.61,55.013 1181.48,49.3 1177.81,43.946C1174.12,38.556 1169.9,33.532 1165.23,28.969C1160.55,24.402 1155.42,20.298 1149.94,16.737C1145.17,13.636 1140.13,10.948 1134.89,8.714C1129.48,6.405 1123.86,4.584 1118.12,3.277C1113.67,2.264 1109.16,1.561 1104.61,1.174C1101.98,0.95 1099.35,0.832 1096.71,0.812C764.794,-0.727 432.864,-0.727 100.944,0.812C98.308,0.832 95.674,0.95 93.047,1.174C88.502,1.561 83.983,2.264 79.536,3.277C73.798,4.584 68.178,6.405 62.765,8.714C56.433,11.416 50.387,14.782 44.753,18.738C39.408,22.49 34.434,26.772 29.928,31.5C25.555,36.087 21.621,41.093 18.2,46.429C15.017,51.394 12.278,56.643 10.031,62.096C7.865,67.355 6.154,72.801 4.927,78.354C3.92,82.912 3.237,87.542 2.884,92.196C2.708,94.51 2.616,96.83 2.598,99.151C-0.821,769.241 -0.82,1439.35 2.598,2109.45C2.616,2111.77 2.708,2114.09 2.884,2116.41C3.237,2121.06 3.92,2125.69 4.927,2130.25C6.22,2136.1 8.048,2141.83 10.382,2147.35C12.794,2153.05 15.744,2158.52 19.179,2163.67C22.695,2168.94 26.715,2173.87 31.168,2178.38C35.621,2182.89 40.504,2186.97 45.731,2190.54C50.919,2194.09 56.445,2197.15 62.212,2199.65C67.984,2202.15 73.996,2204.1 80.14,2205.46C84.595,2206.45 89.118,2207.12 93.666,2207.48C96.086,2207.67 98.512,2207.77 100.939,2207.79C432.759,2209.37 764.579,2208.32 1096.4,2207.79L1096.4,2207.81ZM629.65,191.507L567.782,191.507C543.467,191.507 523.728,171.767 523.728,147.454L523.728,85.585C523.728,61.272 543.468,41.532 567.782,41.532L629.65,41.532C653.964,41.532 673.704,61.272 673.704,85.585L673.704,147.454C673.704,171.767 653.965,191.507 629.65,191.507ZM618.06,163.412C633.265,163.411 645.608,151.067 645.608,135.864L645.608,97.176C645.608,81.971 633.264,69.627 618.06,69.627L579.372,69.627C564.168,69.627 551.824,81.971 551.824,97.176L551.824,135.864C551.824,151.066 564.167,163.411 579.372,163.412L618.06,163.412L618.06,163.412ZM1160.33,2054.61L37.64,2054.61C36.723,1446.14 34.69,837.712 37.131,229.212L1160.33,229.212C1161.51,837.681 1162.9,1446.11 1160.33,2054.61ZM795.15,2148.84L402.29,2148.84C397.646,2148.84 393.877,2145.07 393.877,2140.42L393.877,2123.6C393.877,2118.95 397.647,2115.18 402.29,2115.18L795.15,2115.18C799.794,2115.18 803.564,2118.95 803.564,2123.6L803.564,2140.42C803.564,2145.07 799.795,2148.84 795.15,2148.84L795.15,2148.84Z" style="fill:white;" />
            </g>
            <g transform="matrix(2,0,0,2,0,0)">
                <text x="599.436px" y="758.646px" style="font-family:'LucidaGrande-Bold', 'Lucida Grande', sans-serif;font-weight:600;font-size:12.006px;fill:white;">
                    M
                    <tspan x="610.986px 621.521px 629.735px 634.368px 642.002px " y="758.646px 758.646px 758.646px 758.646px 758.646px ">OBILE</tspan>
                </text>
            </g>
        </g>
    </g>
</svg>