<?xml version="1.0" encoding="UTF-8" standalone="no"?>
<!DOCTYPE svg PUBLIC "-//W3C//DTD SVG 1.1//EN" "http://www.w3.org/Graphics/SVG/1.1/DTD/svg11.dtd">
<svg viewBox="0 0 57 48" version="1.1" xmlns="http://www.w3.org/2000/svg" xmlns:xlink="http://www.w3.org/1999/xlink" xml:space="preserve" xmlns:serif="http://www.serif.com/" style="fill-rule:evenodd;clip-rule:evenodd;stroke-linejoin:round;stroke-miterlimit:2;">
    <g transform="matrix(1,0,0,1,-1754,-1880)">
        <g transform="matrix(0.113771,0,0,-0.115081,1754.06,1926.19)">
            <path d="M448.81,294.17C449.11,289.76 449.11,285.35 449.11,280.91C449.11,145.36 345.92,-10.96 157.24,-10.96L157.24,-10.88C101.5,-10.97 46.92,4.99 0,35.1C8.1,34.13 16.25,33.64 24.42,33.62C70.61,33.58 115.48,49.08 151.82,77.62C107.92,78.45 69.43,107.07 55.98,148.86C71.36,145.89 87.2,146.5 102.29,150.63C54.43,160.3 20,202.35 20,251.18L20,252.48C34.26,244.54 50.23,240.13 66.56,239.64C21.49,269.75 7.6,329.71 34.82,376.6C86.9,312.51 163.74,273.55 246.23,269.43C237.96,305.06 249.26,342.39 275.91,367.44C317.23,406.28 382.21,404.29 421.05,362.99C444.02,367.52 466.04,375.95 486.19,387.89C478.53,364.14 462.51,343.97 441.1,331.16C461.43,333.56 481.3,339 500.01,347.31C486.23,326.67 468.88,308.69 448.81,294.17Z" style="fill:white;fill-rule:nonzero;" />
        </g>
    </g>
</svg>