<?xml version="1.0" encoding="UTF-8" standalone="no"?>
<!DOCTYPE svg PUBLIC "-//W3C//DTD SVG 1.1//EN" "http://www.w3.org/Graphics/SVG/1.1/DTD/svg11.dtd">
<svg viewBox="0 0 44 45" version="1.1" xmlns="http://www.w3.org/2000/svg" xmlns:xlink="http://www.w3.org/1999/xlink" xml:space="preserve" xmlns:serif="http://www.serif.com/" style="fill-rule:evenodd;clip-rule:evenodd;stroke-linejoin:round;stroke-miterlimit:2;">
    <g transform="matrix(1,0,0,1,-1570,-1883)">
        <g>
            <g transform="matrix(0.0953576,0,0,-0.0953576,1570.06,1927.32)">
                <path d="M228.1,415.2C289,415.2 296.2,415 320.3,413.9C342.5,412.9 354.6,409.2 362.7,406C373.3,401.9 380.9,396.9 388.9,388.9C396.9,380.9 401.8,373.3 406,362.7C409.1,354.7 412.8,342.6 413.9,320.3C415,296.2 415.2,289 415.2,228.1C415.2,167.2 415,160 413.9,135.9C412.9,113.7 409.2,101.6 406,93.5C401.9,82.9 396.9,75.3 388.9,67.3C380.9,59.3 373.3,54.4 362.7,50.2C354.7,47.1 342.6,43.4 320.3,42.3C296.2,41.2 289,41 228.1,41C167.2,41 160,41.2 135.9,42.3C113.7,43.3 101.6,47 93.5,50.2C82.9,54.3 75.3,59.3 67.3,67.3C59.3,75.3 54.4,82.9 50.2,93.5C47.1,101.5 43.4,113.6 42.3,135.9C41.2,160 41,167.2 41,228.1C41,289 41.2,296.2 42.3,320.3C43.3,342.5 47,354.6 50.2,362.7C54.3,373.3 59.3,380.9 67.3,388.9C75.3,396.9 82.9,401.8 93.5,406C101.5,409.1 113.6,412.8 135.9,413.9C160,415 167.2,415.2 228.1,415.2M228.1,456.3C166.1,456.3 158.4,456 134,454.9C109.7,453.8 93.1,449.9 78.6,444.3C63.6,438.5 50.9,430.7 38.2,418C25.6,405.3 17.8,392.6 12,377.6C6.4,363.1 2.5,346.5 1.4,322.2C0.3,297.9 0,290.1 0,228.2C0,166.2 0.3,158.5 1.4,134.1C2.5,109.8 6.4,93.2 12,78.7C17.8,63.7 25.6,51 38.3,38.3C51,25.6 63.7,17.8 78.7,12C93.2,6.4 109.8,2.5 134.1,1.4C158.4,0.3 166.2,0 228.2,0C290.2,0 297.9,0.3 322.3,1.4C346.6,2.5 363.2,6.4 377.7,12C392.7,17.8 405.4,25.6 418.1,38.3C430.8,51 438.6,63.7 444.4,78.7C450,93.2 453.9,109.8 455,134.1C456.1,158.4 456.4,166.2 456.4,228.2C456.4,290.2 456.1,297.9 455,322.3C453.9,346.6 450,363.2 444.4,377.7C438.6,392.7 430.8,405.4 418.1,418.1C405.4,430.8 392.7,438.6 377.7,444.4C363.2,450 346.6,453.9 322.3,455C297.9,456 290.1,456.3 228.1,456.3" style="fill:white;fill-rule:nonzero;" />
            </g>
            <g transform="matrix(0.0953576,0,0,-0.0953576,1570.06,1927.32)">
                <path d="M228.1,345.3C163.4,345.3 111,292.9 111,228.2C111,163.5 163.5,111 228.2,111C292.9,111 345.4,163.4 345.4,228.2C345.3,292.9 292.8,345.3 228.1,345.3M228.1,152.1C186.1,152.1 152.1,186.1 152.1,228.1C152.1,270.1 186.1,304.1 228.1,304.1C270.1,304.1 304.1,270.1 304.1,228.1C304.2,186.2 270.1,152.1 228.1,152.1" style="fill:white;fill-rule:nonzero;" />
            </g>
            <g transform="matrix(0,0.0953576,-0.0953576,0,1613.57,1860.59)">
                <path d="M349.9,79C365,79 377.3,91.3 377.3,106.4C377.3,121.5 365,133.8 349.9,133.8C334.8,133.8 322.5,121.5 322.5,106.4C322.5,91.3 334.7,79 349.9,79" style="fill:white;fill-rule:nonzero;" />
            </g>
        </g>
    </g>
</svg>