<?xml version="1.0" encoding="UTF-8" standalone="no"?>
<!DOCTYPE svg PUBLIC "-//W3C//DTD SVG 1.1//EN" "http://www.w3.org/Graphics/SVG/1.1/DTD/svg11.dtd">
<svg width="100%" height="100%" viewBox="0 0 387 386" version="1.1" xmlns="http://www.w3.org/2000/svg" xmlns:xlink="http://www.w3.org/1999/xlink" xml:space="preserve" xmlns:serif="http://www.serif.com/" style="fill-rule:evenodd;clip-rule:evenodd;stroke-linejoin:round;stroke-miterlimit:2;">
    <g transform="matrix(1,0,0,1,-608,-1170)">
        <g>
            <g transform="matrix(6.02638,0,0,-6.02638,608.871,1555.93)">
                <path d="M9.955,64L54.045,64C56.685,64 59.217,62.951 61.084,61.084C62.951,59.217 64,56.685 64,54.045L64,9.955C64,7.315 62.951,4.783 61.084,2.916C59.217,1.049 56.685,0 54.045,0L9.955,0C7.315,0 4.783,1.049 2.916,2.916C1.049,4.783 0,7.315 0,9.955L0,54.045C0,56.685 1.049,59.217 2.916,61.084C4.783,62.951 7.315,64 9.955,64" style="fill:#009CCC;fill-rule:nonzero;" />
            </g>
            <g transform="matrix(0.51745,0,0,-0.519226,677.749,1286.07)">
                <rect x="56" y="64" width="16" height="16" style="fill:white;" />
            </g>
            <g transform="matrix(0.51745,0,0,-0.519226,677.749,1286.07)">
                <rect x="88" y="64" width="16" height="16" style="fill:white;" />
            </g>
            <g transform="matrix(0.51745,0,0,-0.519226,677.749,1286.07)">
                <rect x="120" y="64" width="16" height="16" style="fill:white;" />
            </g>
            <g transform="matrix(0.51745,0,0,-0.519226,677.749,1477.15)">
                <path d="M456,480L56,480C53.9,479.998 51.819,479.791 49.76,479.379C47.7,478.968 45.7,478.359 43.76,477.555C41.82,476.75 39.976,475.763 38.23,474.596C36.484,473.429 34.868,472.102 33.383,470.617C31.898,469.132 30.571,467.516 29.404,465.77C28.237,464.024 27.25,462.18 26.445,460.24C25.641,458.3 25.032,456.3 24.621,454.24C24.209,452.181 24.002,450.1 24,448L24,128C24.002,125.9 24.209,123.819 24.621,121.76C25.032,119.7 25.641,117.7 26.445,115.76C27.25,113.82 28.237,111.976 29.404,110.23C30.571,108.484 31.898,106.868 33.383,105.383C34.868,103.898 36.484,102.572 38.23,101.404C39.976,100.237 41.82,99.25 43.76,98.445C45.7,97.641 47.7,97.032 49.76,96.621C51.819,96.209 53.9,96.002 56,96L197.058,96L192.694,48L168,48L168,32L344,32L344,48L319.306,48L314.942,96L456,96C458.1,96.002 460.181,96.209 462.24,96.621C464.3,97.032 466.3,97.641 468.24,98.445C470.18,99.25 472.024,100.237 473.77,101.404C475.516,102.571 477.132,103.898 478.617,105.383C480.102,106.868 481.428,108.484 482.596,110.23C483.763,111.976 484.75,113.82 485.555,115.76C486.359,117.7 486.968,119.7 487.379,121.76C487.791,123.819 487.998,125.9 488,128L488,448C487.998,450.1 487.791,452.181 487.379,454.24C486.968,456.3 486.359,458.3 485.555,460.24C484.75,462.18 483.763,464.024 482.596,465.77C481.428,467.516 480.102,469.132 478.617,470.617C477.132,472.102 475.516,473.429 473.77,474.596C472.024,475.763 470.18,476.75 468.24,477.555C466.3,478.359 464.3,478.968 462.24,479.379C460.181,479.791 458.1,479.998 456,480ZM56,464L456,464C457.05,463.999 458.09,463.895 459.12,463.689C460.15,463.484 461.15,463.179 462.12,462.777C463.09,462.375 464.012,461.881 464.885,461.298C465.758,460.714 466.566,460.051 467.308,459.308C468.051,458.566 468.714,457.758 469.298,456.885C469.881,456.012 470.375,455.09 470.777,454.12C471.18,453.15 471.484,452.15 471.689,451.12C471.895,450.09 471.999,449.05 472,448L472,416L40,416L40,448C40.001,449.05 40.105,450.09 40.311,451.12C40.516,452.15 40.821,453.15 41.223,454.12C41.625,455.09 42.119,456.012 42.702,456.885C43.286,457.758 43.949,458.566 44.692,459.308C45.434,460.051 46.242,460.714 47.115,461.298C47.988,461.881 48.91,462.375 49.88,462.777C50.85,463.179 51.85,463.484 52.88,463.689C53.91,463.895 54.95,463.999 56,464ZM472,400L472,176L40,176L40,400L472,400ZM303.24,48L208.76,48L213.124,96L298.876,96L303.24,48ZM456,112L56,112C54.95,112.001 53.91,112.105 52.88,112.311C51.85,112.516 50.85,112.821 49.88,113.223C48.91,113.625 47.988,114.119 47.115,114.702C46.242,115.286 45.434,115.949 44.692,116.692C43.949,117.434 43.286,118.242 42.702,119.115C42.119,119.988 41.625,120.91 41.223,121.88C40.821,122.85 40.516,123.85 40.311,124.88C40.105,125.91 40.001,126.95 40,128L40,160L472,160L472,128C471.999,126.95 471.895,125.91 471.689,124.88C471.484,123.85 471.18,122.85 470.777,121.88C470.375,120.91 469.881,119.988 469.298,119.115C468.714,118.242 468.051,117.434 467.308,116.692C466.566,115.949 465.758,115.286 464.885,114.702C464.012,114.119 463.09,113.625 462.12,113.223C461.15,112.82 460.15,112.516 459.12,112.311C458.09,112.105 457.05,112.001 456,112Z" style="fill:white;fill-rule:nonzero;" />
            </g>
            <g transform="matrix(0.51745,0,0,-0.519226,677.749,1601.76)">
                <rect x="248" y="368" width="16" height="16" style="fill:white;" />
            </g>
            <g transform="matrix(0.51745,0,0,-0.519226,677.749,1427.3)">
                <rect x="64" y="200" width="16" height="16" style="fill:white;" />
            </g>
            <g transform="matrix(0.51745,0,0,-0.519226,677.749,1427.3)">
                <rect x="96" y="200" width="120" height="16" style="fill:white;" />
            </g>
            <g transform="matrix(0.51745,0,0,-0.519226,677.749,1460.53)">
                <rect x="64" y="232" width="16" height="16" style="fill:white;" />
            </g>
            <g transform="matrix(0.51745,0,0,-0.519226,677.749,1460.53)">
                <rect x="96" y="232" width="208" height="16" style="fill:white;" />
            </g>
            <g transform="matrix(0.51745,0,0,-0.519226,677.749,1493.76)">
                <rect x="64" y="264" width="16" height="16" style="fill:white;" />
            </g>
            <g transform="matrix(0.51745,0,0,-0.519226,677.749,1493.76)">
                <rect x="96" y="264" width="152" height="16" style="fill:white;" />
            </g>
            <g transform="matrix(0.51745,0,0,-0.519226,677.749,1526.99)">
                <rect x="64" y="296" width="16" height="16" style="fill:white;" />
            </g>
            <g transform="matrix(0.51745,0,0,-0.519226,677.749,1526.99)">
                <rect x="96" y="296" width="232" height="16" style="fill:white;" />
            </g>
            <g transform="matrix(0.51745,0,0,-0.519226,677.749,1377.45)">
                <path d="M66.343,154.343L82.343,138.343L93.657,149.657L83.313,160L93.657,170.343L82.343,181.657L66.343,165.657C65.593,164.907 65.015,164.042 64.609,163.062C64.203,162.081 64,161.061 64,160C64,158.939 64.203,157.919 64.609,156.938C65.015,155.958 65.593,155.093 66.343,154.343Z" style="fill:white;fill-rule:nonzero;" />
            </g>
            <g transform="matrix(0.51745,0,0,-0.519226,677.749,1377.45)">
                <path d="M146.343,149.657L157.657,138.343L173.657,154.343C174.407,155.093 174.985,155.958 175.391,156.938C175.797,157.919 176,158.939 176,160C176,161.061 175.797,162.081 175.391,163.062C174.985,164.042 174.407,164.907 173.657,165.657L157.657,181.657L146.343,170.343L156.687,160L146.343,149.657Z" style="fill:white;fill-rule:nonzero;" />
            </g>
            <g transform="matrix(0.163658,-0.492573,-0.490888,-0.16422,798.746,1379.76)">
                <rect x="94.702" y="152" width="50.596" height="16" style="fill:white;" />
            </g>
            <g transform="matrix(0.51745,0,0,-0.519226,677.749,1460.53)">
                <rect x="320" y="232" width="48" height="16" style="fill:white;" />
            </g>
            <g transform="matrix(0.51745,0,0,-0.519226,677.749,1526.99)">
                <rect x="344" y="296" width="16" height="16" style="fill:white;" />
            </g>
            <g transform="matrix(0.51745,0,0,-0.519226,677.749,1526.99)">
                <rect x="376" y="296" width="16" height="16" style="fill:white;" />
            </g>
            <g transform="matrix(0.51745,0,0,-0.519226,677.749,1427.3)">
                <rect x="232" y="200" width="16" height="16" style="fill:white;" />
            </g>
            <g transform="matrix(2,0,0,2,0,0)">
                <text x="364.772px" y="758.646px" style="font-family:'LucidaGrande-Bold', 'Lucida Grande', sans-serif;font-weight:600;font-size:12.006px;fill:white;">
                    S
                    <tspan x="372.066px 382.385px 389.714px 398.433px 409.719px 412.197px 421.473px 430.191px " y="758.646px 758.646px 758.646px 758.646px 758.646px 758.646px 758.646px 758.646px ">OFTW ARE</tspan>
                </text>
            </g>
        </g>
    </g>
</svg>